<?xml version="1.0" standalone="no"?>
<!DOCTYPE svg PUBLIC "-//W3C//DTD SVG 20010904//EN"
 "http://www.w3.org/TR/2001/REC-SVG-20010904/DTD/svg10.dtd">
<svg version="1.0" xmlns="http://www.w3.org/2000/svg"
 width="512.000000pt" height="512.000000pt" viewBox="0 0 512.000000 512.000000"
 preserveAspectRatio="xMidYMid meet">
<metadata>
Created by potrace 1.14, written by Peter Selinger 2001-2017
</metadata>
<g transform="translate(0.000000,512.000000) scale(0.100000,-0.100000)"
fill="#000000" stroke="none">
<path d="M0 4947 l0 -173 225 -170 224 -169 116 -355 c64 -195 125 -383 137
-418 12 -37 25 -61 31 -59 7 3 11 8 11 13 -1 5 -72 227 -157 494 -85 267 -162
509 -171 539 -12 42 -16 102 -16 263 l0 208 -200 0 -200 0 0 -173z"/>
<path d="M660 5113 c0 -19 90 -287 105 -313 21 -36 18 -10 -4 41 -11 24 -35
95 -54 156 -31 103 -47 143 -47 116z"/>
<path d="M1131 5097 c15 -12 59 -48 98 -81 77 -63 73 -52 51 -146 -24 -97 -32
-256 -27 -509 5 -270 20 -413 65 -617 l18 -82 -23 -48 c-24 -51 -28 -64 -15
-64 4 0 15 21 26 46 29 70 106 148 188 189 39 19 79 35 89 35 11 0 19 5 19 10
0 13 -1 13 -71 -10 -73 -25 -101 -42 -152 -89 -28 -27 -40 -33 -46 -23 -8 14
-43 237 -63 407 -6 55 -11 201 -11 325 0 248 11 346 63 548 35 140 34 132 17
132 -7 0 -19 -24 -28 -57 -8 -31 -19 -58 -25 -60 -6 -2 -43 24 -82 57 -42 35
-81 60 -94 60 -23 0 -23 0 3 -23z"/>
<path d="M1556 5028 c-3 -50 -6 -112 -6 -137 0 -46 102 -541 108 -523 1 5 -20
117 -48 248 -48 229 -50 244 -45 349 4 61 8 120 11 133 2 12 0 22 -4 22 -5 0
-12 -41 -16 -92z"/>
<path d="M2040 5112 c0 -15 130 -353 203 -527 118 -284 189 -435 203 -435 17
0 19 11 54 400 17 184 35 380 40 435 12 132 12 135 -4 135 -9 0 -16 -20 -20
-62 l-8 -63 -35 63 c-19 34 -41 62 -49 62 -19 0 -19 0 31 -93 31 -57 45 -96
45 -122 0 -49 -59 -668 -65 -673 -7 -8 -161 347 -306 706 -63 156 -89 207 -89
174z"/>
<path d="M2886 5053 c-9 -38 -44 -152 -76 -256 -95 -298 -144 -513 -194 -842
-62 -412 -105 -904 -78 -913 14 -4 18 26 32 233 21 309 75 718 131 995 42 203
73 321 131 500 46 143 98 325 98 343 0 4 -6 7 -14 7 -8 0 -20 -25 -30 -67z"/>
<path d="M3283 4895 c0 -205 1 -216 7 -102 4 70 4 174 0 230 -6 80 -7 53 -7
-128z"/>
<path d="M3766 5015 c101 -311 122 -785 58 -1272 -9 -68 -20 -123 -24 -123 -4
0 -20 22 -37 48 -35 57 -102 114 -166 142 -41 18 -46 24 -42 48 2 15 11 92 20
172 8 80 17 157 20 173 2 15 1 27 -4 27 -8 0 -19 -70 -42 -284 l-12 -108 -35
6 c-19 3 -36 6 -37 8 -2 2 10 147 26 323 16 175 28 324 25 330 -6 18 -15 -52
-42 -350 -14 -159 -28 -292 -31 -295 -3 -3 -29 -5 -59 -5 -54 0 -55 -1 -107
-59 -149 -169 -312 -395 -429 -596 -77 -130 -196 -373 -249 -502 -24 -60 -46
-108 -49 -108 -4 0 -20 33 -35 73 -154 394 -425 840 -675 1110 -64 69 -110 97
-110 67 0 -5 6 -10 14 -10 29 0 226 -246 360 -448 156 -236 295 -506 391 -757
24 -64 47 -110 55 -110 8 0 38 63 75 155 150 377 375 753 629 1049 l89 104 84
-6 c62 -3 97 -11 138 -31 75 -37 146 -104 183 -173 58 -110 127 -373 177 -678
32 -195 32 -214 -7 -287 l-32 -60 -42 7 c-25 3 -45 2 -48 -4 -4 -6 7 -34 23
-63 40 -72 93 -205 89 -226 -2 -9 -33 45 -70 121 -37 75 -72 137 -78 137 -6 0
4 -28 21 -61 22 -45 27 -64 19 -69 -9 -6 -3 -34 24 -105 20 -54 34 -100 32
-103 -3 -2 -10 6 -15 19 -43 110 -69 163 -79 167 -8 2 -6 -14 8 -47 11 -28 18
-51 15 -51 -2 0 -16 22 -31 50 -15 27 -36 52 -46 56 -54 17 -187 -34 -318
-121 -36 -24 -202 -150 -370 -279 -277 -215 -382 -287 -396 -273 -3 2 -8 37
-11 76 -3 39 -10 74 -16 78 -15 9 -4 -201 12 -221 12 -14 11 -16 -7 -16 -18 0
-21 9 -29 73 -6 54 -12 72 -23 72 -11 0 -17 -18 -23 -72 -8 -64 -11 -73 -29
-73 -15 0 -18 3 -10 13 15 18 28 232 13 223 -6 -4 -11 -22 -11 -40 0 -19 -3
-48 -6 -65 -5 -26 -11 -31 -34 -31 -33 0 -72 26 -285 191 -438 339 -549 414
-663 449 -111 34 -111 34 -173 -83 -45 -85 -48 -82 -14 10 43 112 22 93 -27
-25 l-45 -112 31 -5 c17 -3 53 -6 81 -7 l49 -3 86 -149 c122 -211 121 -210
260 -246 63 -16 205 -48 315 -70 195 -39 201 -40 233 -23 31 17 34 17 69 -2
20 -11 54 -35 76 -53 35 -29 45 -32 107 -32 62 0 72 3 107 33 22 17 56 41 76
52 35 18 38 18 72 2 35 -16 40 -16 275 33 132 27 276 59 320 71 90 24 96 30
175 169 27 47 67 113 89 148 l40 62 68 1 c92 2 93 2 92 22 -1 9 4 17 12 17 16
0 19 21 5 36 -6 5 -24 47 -41 94 -37 101 -25 95 20 -10 18 -41 37 -80 42 -87
10 -12 -256 -690 -395 -1008 l-61 -140 -105 -105 c-115 -114 -414 -368 -571
-485 -87 -65 -106 -74 -156 -81 -74 -9 -171 2 -203 23 -141 90 -499 382 -648
526 -111 108 -112 110 -169 235 -31 70 -140 334 -242 587 l-184 460 23 70 c13
39 45 112 71 164 26 52 45 98 43 101 -3 4 -23 2 -46 -4 -38 -10 -42 -9 -60 14
-35 46 -59 106 -59 151 0 54 49 340 90 527 16 75 30 144 29 152 -1 26 -27 -42
-50 -134 -20 -80 -23 -87 -36 -71 -16 22 -16 20 -4 -23 7 -24 4 -64 -14 -155
-13 -67 -29 -159 -35 -204 -7 -46 -14 -83 -17 -83 -3 0 -118 68 -256 151 -139
83 -255 153 -259 156 -5 2 -8 0 -8 -5 0 -12 263 -185 412 -272 103 -60 109
-66 133 -119 38 -81 71 -121 102 -121 16 0 23 -4 20 -12 -3 -7 -25 -58 -47
-113 -23 -55 -45 -104 -49 -108 -4 -4 -21 11 -36 33 -73 105 -267 253 -309
237 -40 -15 -71 -116 -83 -267 l-8 -95 -106 120 c-229 258 -372 442 -530 683
-39 59 -73 109 -75 111 -2 2 -4 -79 -4 -182 l0 -186 188 -95 187 -95 92 -113
c50 -62 127 -151 171 -198 l79 -85 16 -109 c10 -60 15 -111 13 -113 -8 -8 -48
19 -129 89 -163 139 -391 355 -503 476 l-115 123 1 -418 2 -418 36 -41 c20
-23 100 -86 177 -139 205 -143 347 -249 336 -253 -12 -4 -141 61 -341 172 -85
47 -158 86 -161 86 -4 0 -6 -8 -5 -17 0 -10 -9 -22 -21 -28 l-23 -10 0 -792 0
-793 241 0 241 0 -7 40 -7 40 39 0 c65 0 164 -20 256 -51 49 -16 100 -29 115
-29 l27 1 -30 16 c-86 46 -197 76 -367 98 l-48 6 0 64 0 64 72 59 c87 71 377
286 398 296 8 3 33 20 55 37 111 84 318 210 328 199 2 -3 -5 -58 -17 -122
l-22 -117 -92 -61 c-90 -59 -222 -173 -222 -191 0 -20 25 -6 78 42 56 51 223
169 240 169 5 0 28 -44 52 -97 49 -110 56 -121 69 -108 5 6 -11 52 -40 115
-47 100 -49 108 -44 165 12 117 115 612 143 685 9 24 11 22 39 -35 89 -182
122 -231 211 -311 140 -128 215 -191 431 -367 284 -231 263 -219 375 -225 143
-7 169 3 325 121 163 124 397 318 545 452 l109 99 71 146 70 145 9 -45 c5 -25
33 -144 63 -265 29 -121 56 -230 59 -242 10 -41 26 -25 19 19 -7 38 -6 41 12
33 34 -14 64 -18 64 -8 0 6 26 29 59 51 58 41 59 42 73 21 l14 -22 44 22 c24
11 58 21 76 21 18 0 36 5 39 11 4 6 13 8 19 6 14 -6 52 51 42 61 -4 3 -22 -2
-41 -13 -40 -21 -54 -15 -34 13 18 24 179 167 243 215 58 44 74 46 78 10 3
-28 4 -28 73 -28 39 0 79 -5 90 -11 28 -15 91 -7 150 20 67 30 251 211 235
231 -8 10 2 26 45 68 l55 56 0 843 -1 843 -67 -200 c-37 -110 -83 -227 -101
-260 -59 -104 -191 -275 -353 -456 -37 -42 -68 -79 -68 -82 0 -18 56 1 283 93
135 55 252 100 259 100 7 0 -77 -59 -187 -131 -110 -72 -204 -136 -210 -141
-25 -26 35 8 185 106 88 58 171 111 183 117 12 6 -54 -66 -148 -161 -144 -145
-185 -180 -265 -227 -52 -31 -150 -92 -218 -135 -67 -43 -124 -78 -126 -78 -2
0 10 32 26 72 65 155 85 373 52 566 l-15 91 177 258 c163 238 223 339 239 406
9 36 21 45 198 142 l157 87 0 426 c0 234 -2 423 -4 421 -2 -2 -58 -161 -124
-354 -141 -409 -253 -718 -287 -794 -18 -38 -330 -509 -372 -560 -1 -2 -12 4
-23 14 -25 23 -52 16 -126 -34 -58 -39 -169 -147 -211 -206 -20 -28 -22 -29
-29 -10 -6 16 -40 96 -91 213 -3 8 4 12 24 12 23 0 34 9 62 52 55 84 61 115
41 248 -22 144 -45 268 -71 389 -18 78 -19 95 -8 105 8 7 115 71 239 141 342
195 412 237 407 242 -3 2 -146 -76 -319 -176 -172 -99 -320 -183 -330 -186
-13 -5 -21 11 -46 89 l-30 96 20 123 c10 67 21 131 23 142 4 15 39 34 152 79
339 135 690 315 961 492 l142 93 0 321 0 320 -165 0 -165 0 0 -27 c0 -68 -23
-273 -36 -332 -61 -271 -128 -538 -137 -549 -13 -16 -163 -93 -169 -87 -2 2 6
73 19 157 39 265 83 628 90 735 5 92 4 103 -10 103 -14 0 -17 -10 -17 -53 0
-110 -111 -952 -128 -969 -19 -19 -520 -234 -527 -226 -2 2 1 53 7 113 14 157
5 583 -17 725 -18 121 -65 316 -89 375 -8 19 -21 35 -29 35 -12 0 -8 -23 19
-105z m-2894 -2484 c60 -29 174 -134 221 -203 29 -42 257 -588 257 -614 0 -4
-7 -1 -15 6 -8 7 -15 21 -15 31 0 21 -48 69 -69 69 -22 0 -81 -43 -81 -58 0
-9 11 -4 31 12 17 14 36 26 43 26 24 0 53 -30 60 -60 3 -19 16 -37 34 -47 16
-9 34 -29 40 -45 l10 -28 -46 0 c-35 0 -52 6 -72 25 -15 15 -46 29 -75 34 -35
7 -55 17 -69 36 -34 45 -96 148 -96 160 0 6 23 33 50 60 53 52 61 48 41 -23
-6 -18 -6 -32 -1 -32 9 0 23 45 34 112 6 30 -1 50 -36 120 -82 157 -164 274
-221 311 -77 50 -75 49 -75 24 0 -12 -7 -40 -15 -62 -24 -59 -21 -235 3 -220
4 2 3 28 -2 57 -11 59 2 146 27 185 15 22 17 22 44 9 34 -18 74 -63 119 -133
30 -47 33 -57 26 -100 -3 -26 -12 -63 -20 -80 -7 -18 -9 -33 -4 -33 7 0 29 52
47 110 4 16 55 -59 80 -118 l14 -34 -66 -70 c-77 -81 -77 -83 -14 -184 51 -80
90 -114 133 -114 23 0 42 -9 60 -26 19 -19 39 -28 72 -31 26 -2 53 -7 62 -12
11 -6 82 -160 82 -178 0 -2 -24 -3 -52 -3 -118 1 -305 107 -445 253 -129 134
-187 254 -214 436 -14 99 -7 291 14 366 16 59 35 98 45 93 4 -2 28 -14 54 -27z
m3426 17 c21 -26 43 -137 49 -249 14 -272 -55 -458 -236 -640 -47 -47 -118
-106 -157 -132 -122 -80 -314 -143 -314 -103 0 21 50 148 64 164 7 7 36 14 65
16 40 3 59 10 80 30 17 16 38 26 58 26 17 0 43 10 58 22 35 28 125 164 125
190 0 11 -28 52 -62 90 l-62 70 34 65 c19 36 38 67 42 69 4 3 12 -13 17 -34
11 -41 36 -80 45 -71 3 3 -2 42 -11 86 l-17 82 49 73 c28 40 66 83 85 96 33
22 35 22 47 5 22 -29 33 -85 33 -167 0 -62 3 -77 12 -68 8 8 12 45 13 100 0
70 -4 95 -22 131 -17 33 -20 48 -11 58 21 26 -13 13 -72 -27 -63 -43 -94 -83
-193 -250 -80 -134 -82 -145 -62 -235 18 -83 38 -102 29 -27 l-7 47 42 -40
c22 -21 41 -45 41 -53 0 -18 -62 -119 -94 -153 -14 -16 -40 -29 -64 -33 -22
-3 -53 -17 -69 -30 -16 -14 -45 -25 -69 -27 -41 -4 -41 -4 -32 23 6 16 16 28
23 28 18 0 55 48 55 70 0 10 11 25 24 33 22 15 25 14 60 -15 22 -18 41 -27 46
-22 12 12 3 24 -47 57 l-42 29 -31 -24 c-17 -12 -34 -35 -37 -50 -3 -15 -12
-33 -20 -39 -10 -9 -7 4 8 42 12 30 61 158 111 284 49 127 99 246 112 265 55
84 173 194 251 234 36 19 40 19 53 4z m-2774 -168 c90 -34 220 -123 533 -366
164 -127 319 -245 345 -262 36 -25 45 -36 41 -52 -3 -13 -11 -19 -19 -16 -8 3
-170 93 -362 199 -511 286 -553 305 -689 312 -42 2 -77 6 -80 9 -4 4 72 162
89 184 15 18 80 15 142 -8z m2206 -12 c30 -49 82 -160 77 -165 -3 -2 -38 -6
-80 -8 -136 -7 -193 -33 -746 -344 -168 -93 -308 -168 -313 -165 -22 14 -4 44
45 76 28 19 174 129 322 244 149 115 293 226 320 246 124 89 246 147 313 148
37 0 45 -4 62 -32z m-2005 -315 c77 -41 145 -79 151 -84 6 -5 16 -27 23 -48
20 -68 99 -108 165 -83 28 11 38 8 115 -36 157 -88 108 -91 -199 -13 -343 87
-303 64 -384 221 -68 132 -68 133 -40 126 15 -4 91 -41 169 -83z m1780 -42
c-78 -154 -51 -138 -364 -217 -218 -55 -293 -67 -300 -49 -2 6 34 32 82 58 71
40 89 47 106 38 31 -17 83 -13 119 9 29 18 50 51 66 101 4 14 262 162 316 182
40 15 37 0 -25 -122z m-2940 -22 l200 -68 40 -79 c43 -85 135 -205 190 -249
19 -16 35 -31 35 -34 0 -6 -156 28 -245 53 l-40 11 70 16 c39 9 70 21 69 26 0
6 -43 36 -95 67 -237 145 -478 308 -516 350 -16 18 -14 18 37 -3 30 -13 145
-53 255 -90z m1443 -101 c49 -26 54 -38 13 -38 -38 0 -95 40 -99 70 -4 23 -3
23 20 7 12 -10 42 -27 66 -39z m1163 13 c-7 -11 -25 -28 -41 -36 -33 -17 -83
-20 -78 -5 3 10 120 70 126 64 2 -1 -1 -12 -7 -23z m1026 -376 c161 -34 166
-35 162 -40 -3 -2 -154 -42 -337 -88 -323 -83 -333 -85 -343 -65 -15 27 -4 48
24 48 56 0 211 69 302 134 27 20 55 36 62 36 6 0 65 -11 130 -25z m-2959 -95
c34 -16 89 -36 122 -44 34 -8 65 -17 68 -20 10 -10 -17 -56 -30 -51 -7 2 -114
22 -238 45 -124 22 -234 44 -245 49 -15 6 8 13 85 28 146 29 168 28 238 -7z"/>
<path d="M4736 5109 c-3 -8 -23 -86 -45 -174 -35 -138 -42 -181 -28 -164 9 9
87 342 83 347 -3 3 -8 -1 -10 -9z"/>
<path d="M0 4625 c0 -3 38 -60 84 -128 74 -108 103 -168 259 -517 220 -495
236 -530 242 -530 7 0 -1 20 -217 505 -172 385 -201 443 -276 553 -77 112 -92
132 -92 117z"/>
<path d="M4990 4279 l-125 -149 -228 -136 c-125 -75 -226 -139 -223 -141 3 -3
105 55 228 128 l223 134 103 120 c123 142 156 184 151 189 -2 2 -60 -63 -129
-145z"/>
<path d="M1662 4330 c0 -14 2 -19 5 -12 2 6 2 18 0 25 -3 6 -5 1 -5 -13z"/>
<path d="M0 3888 l0 -426 148 -110 c176 -130 380 -267 388 -260 2 3 -14 20
-36 38 -74 59 -205 357 -416 950 l-83 235 -1 -427z"/>
<path d="M1030 4254 c0 -14 189 -516 197 -524 9 -8 -6 36 -94 275 -84 227
-102 271 -103 249z"/>
<path d="M0 3364 c0 -6 73 -84 161 -175 89 -90 153 -153 143 -139 -11 13 -67
74 -125 135 -58 60 -122 128 -142 150 -20 22 -37 35 -37 29z"/>
<path d="M5022 3228 l-90 -133 -101 -59 c-94 -55 -124 -77 -104 -76 4 1 55 29
113 64 l105 63 89 131 c50 72 87 134 84 137 -3 3 -46 -54 -96 -127z"/>
<path d="M3547 3263 c-14 -24 -29 -239 -25 -353 7 -203 23 -176 24 43 1 106 6
220 11 255 8 54 4 78 -10 55z"/>
<path d="M3475 3218 c-2 -7 -8 -72 -14 -144 l-9 -130 -56 -94 c-30 -52 -52
-98 -49 -103 6 -11 2 -16 62 85 29 49 55 108 60 135 12 66 25 263 17 263 -4 0
-8 -6 -11 -12z"/>
<path d="M3628 3014 c-9 -33 9 -262 26 -337 16 -68 47 -140 66 -152 15 -9 12
8 -10 60 -23 53 -44 168 -63 335 -7 64 -15 105 -19 94z"/>
<path d="M1455 2908 c-9 -153 -28 -256 -59 -324 -29 -63 -30 -68 -16 -59 18
11 47 78 64 149 19 76 38 326 26 339 -4 5 -11 -43 -15 -105z"/>
<path d="M3420 2759 c-51 -100 -48 -123 5 -38 l40 64 8 -55 c14 -88 30 -88 24
0 -6 79 -14 110 -28 110 -5 0 -27 -36 -49 -81z"/>
<path d="M0 2733 c0 -8 253 -207 289 -227 29 -16 -7 15 -109 94 -52 41 -114
89 -137 108 -24 19 -43 30 -43 25z"/>
<path d="M2244 2678 c40 -138 68 -269 62 -291 -7 -31 -40 -43 -78 -28 -31 11
-49 41 -58 91 -6 35 -6 35 -19 12 -7 -13 -13 -44 -14 -69 -2 -39 2 -48 28 -68
39 -32 112 -49 148 -36 34 13 47 46 47 124 l1 62 30 -35 c16 -19 57 -75 89
-123 l60 -88 0 -105 c0 -63 4 -104 10 -104 6 0 10 40 10 101 0 116 -1 114 109
264 l66 89 5 -78 c4 -66 8 -81 29 -97 30 -25 70 -24 127 2 66 32 80 57 65 122
-16 74 -31 93 -31 42 0 -50 -31 -102 -66 -111 -71 -18 -81 55 -31 229 22 76
30 117 22 117 -36 0 -223 -238 -273 -347 l-17 -38 -3 53 c-4 65 -20 68 -24 5
l-3 -48 -24 45 c-46 87 -113 180 -183 255 -72 77 -95 92 -84 53z"/>
<path d="M1296 2482 c-66 -132 -106 -222 -98 -222 9 0 147 289 141 295 -3 2
-22 -30 -43 -73z"/>
<path d="M1289 2404 c-45 -116 -67 -184 -61 -184 10 0 85 200 78 207 -3 3 -10
-7 -17 -23z"/>
<path d="M2075 2347 c50 -45 141 -131 202 -191 62 -60 116 -106 120 -102 12
11 -378 376 -402 376 -5 -1 31 -38 80 -83z"/>
<path d="M2964 2313 c-164 -150 -268 -253 -260 -260 3 -3 61 48 130 114 68 66
157 149 198 183 40 35 75 67 76 72 10 25 -27 -4 -144 -109z"/>
<path d="M2764 2208 c-78 -83 -140 -176 -131 -201 2 -6 22 16 45 49 22 34 63
86 91 116 48 52 62 78 43 78 -4 0 -26 -19 -48 -42z"/>
<path d="M2280 2234 c0 -3 23 -31 51 -62 28 -31 69 -82 92 -114 22 -32 45 -58
49 -58 20 0 -51 111 -110 172 -59 62 -82 79 -82 62z"/>
<path d="M3105 1641 c-49 -15 -109 -34 -133 -44 -23 -9 -49 -17 -58 -17 -30 0
-4 17 53 35 72 22 94 40 39 32 -43 -7 -180 -69 -209 -95 -16 -14 -19 -14 -33
0 -15 14 -14 18 1 42 14 22 15 26 3 26 -16 0 -48 -31 -48 -47 0 -14 44 -53 61
-53 8 0 31 14 53 30 33 25 45 28 80 24 30 -4 59 1 109 20 82 31 106 34 86 9
-12 -15 -12 -16 6 -9 54 20 136 36 209 41 79 4 80 4 26 -6 -76 -15 -92 -34
-20 -24 30 4 96 9 145 11 106 3 106 3 80 14 -11 5 -49 10 -85 11 -44 2 -53 4
-27 6 20 2 37 9 37 14 0 10 -102 5 -207 -10 -42 -6 -53 -5 -53 6 0 17 -9 16
-115 -16z"/>
<path d="M1739 1645 c115 -13 199 -31 245 -50 14 -6 17 -5 12 4 -5 7 -18 17
-30 22 -53 23 54 -6 118 -32 69 -28 116 -37 116 -21 0 8 -76 34 -200 68 -96
27 -114 29 -104 13 5 -9 -2 -10 -22 -6 -16 4 -81 9 -144 11 l-115 5 124 -14z"/>
<path d="M2070 1642 c0 -6 15 -14 33 -17 47 -11 116 -44 170 -83 45 -32 49
-33 71 -18 36 23 42 54 17 79 -25 25 -41 15 -22 -15 11 -17 10 -23 -3 -36 -14
-14 -17 -14 -33 0 -25 23 -161 86 -200 94 -21 4 -33 2 -33 -4z"/>
<path d="M1645 1621 c55 -5 116 -12 135 -16 28 -6 33 -5 23 5 -8 9 -53 14
-135 16 l-123 3 100 -8z"/>
<path d="M2440 1590 c-8 -5 -2 -10 19 -15 23 -5 37 -16 48 -41 20 -41 36 -45
22 -5 -16 46 -62 78 -89 61z"/>
<path d="M2625 1590 c-25 -9 -41 -27 -54 -63 -15 -39 2 -33 22 8 12 24 26 37
49 43 21 5 27 10 18 14 -8 3 -24 2 -35 -2z"/>
<path d="M2463 1520 c14 -16 28 -39 32 -50 3 -11 11 -20 16 -20 10 0 -14 65
-32 87 -6 7 -18 13 -26 13 -11 0 -8 -8 10 -30z"/>
<path d="M2617 1526 c-9 -13 -19 -37 -22 -52 -5 -26 -4 -25 15 9 12 21 28 41
35 44 19 7 19 23 1 23 -7 0 -21 -11 -29 -24z"/>
<path d="M3440 1432 c0 -10 43 -52 53 -52 16 0 5 30 -15 44 -25 18 -38 20 -38
8z"/>
<path d="M3420 1401 c0 -16 41 -61 56 -61 21 0 17 13 -14 43 -29 28 -42 33
-42 18z"/>
<path d="M2630 1325 c0 -82 -9 -95 -69 -95 -17 0 -31 -4 -31 -10 0 -18 67 -11
93 10 21 17 27 31 29 73 l3 52 28 -47 c15 -26 27 -51 27 -57 0 -5 -34 -27 -75
-47 -81 -40 -97 -39 -155 6 -21 17 -23 21 -10 30 13 8 13 10 -1 10 -9 0 -22
-6 -28 -14 -9 -11 0 -22 50 -55 44 -30 68 -40 83 -35 51 15 161 80 164 97 4
18 -85 157 -100 157 -4 0 -8 -34 -8 -75z"/>
<path d="M3400 1346 c0 -17 48 -76 61 -76 16 0 10 20 -17 56 -28 36 -44 43
-44 20z"/>
<path d="M5047 1303 c-31 -32 -57 -61 -57 -65 0 -4 -10 -17 -22 -30 -13 -13
-38 -42 -57 -65 -32 -39 -108 -83 -144 -83 -18 0 -171 -44 -212 -61 -16 -7
-32 -13 -35 -14 -23 -7 -60 -30 -60 -37 0 -5 -4 -7 -9 -4 -14 9 -81 -101 -81
-132 0 -25 20 -42 47 -42 22 0 23 -3 23 -84 l0 -84 -66 -43 -66 -44 39 -33
c21 -18 96 -81 166 -140 121 -100 128 -108 123 -135 -3 -16 -6 -42 -6 -58 0
-28 -2 -29 -47 -29 -99 0 -261 -42 -353 -91 l-45 -24 37 -3 c20 -2 57 4 82 12
71 24 171 45 248 53 l71 6 -7 -36 -7 -37 256 0 255 0 0 680 c0 374 -4 680 -8
680 -5 0 -34 -26 -65 -57z"/>
<path d="M3360 1302 c0 -13 69 -116 81 -120 19 -7 8 27 -23 74 -32 46 -58 67
-58 46z"/>
<path d="M3311 1215 c-7 -19 -10 -39 -7 -44 4 -5 1 -11 -6 -13 -9 -3 -8 -12 5
-32 19 -29 42 -26 32 4 -3 10 -1 21 5 25 14 9 12 70 -3 83 -10 9 -16 4 -26
-23z"/>
<path d="M3274 1094 c3 -9 6 -20 6 -25 0 -5 7 -9 15 -9 19 0 19 14 -1 34 -20
20 -28 20 -20 0z"/>
<path d="M2373 1089 c-18 -5 -33 -11 -33 -12 0 -2 28 -3 63 -2 34 0 89 -2 122
-4 92 -6 249 -2 241 7 -4 4 -78 7 -164 7 -87 1 -166 4 -177 7 -11 3 -35 2 -52
-3z"/>
<path d="M2897 1093 c-10 -10 -8 -91 2 -97 11 -7 21 17 21 52 0 31 -13 56 -23
45z"/>
<path d="M2193 1079 c-15 -15 -17 -48 -3 -69 14 -22 22 -6 18 40 -2 33 -5 39
-15 29z"/>
<path d="M3250 1033 c1 -18 18 -35 24 -24 4 6 4 16 1 21 -7 12 -25 13 -25 3z"/>
<path d="M1527 878 c-10 -72 -27 -159 -38 -192 -22 -72 -24 -91 -4 -55 15 28
50 191 60 279 3 30 8 65 11 78 2 12 1 22 -3 22 -5 0 -16 -59 -26 -132z"/>
<path d="M1613 954 c-4 -22 -7 -88 -8 -149 0 -104 2 -114 35 -189 37 -87 54
-91 19 -5 -47 118 -50 134 -38 257 10 115 7 157 -8 86z"/>
<path d="M2467 941 c-45 -9 -50 -14 -55 -48 -2 -21 0 -24 15 -18 107 46 162
54 228 30 45 -17 65 -19 65 -7 0 32 -170 60 -253 43z"/>
<path d="M3880 813 c0 -5 30 -25 65 -45 79 -45 84 -37 9 15 -54 36 -74 44 -74
30z"/>
<path d="M3785 695 c3 -14 7 -37 10 -51 10 -44 17 -19 10 30 -4 25 -11 46 -16
46 -5 0 -7 -11 -4 -25z"/>
<path d="M1886 652 c-3 -5 87 -153 200 -330 154 -242 211 -322 225 -322 17 0
15 7 -17 58 -21 31 -115 180 -211 330 -96 149 -178 272 -183 272 -5 0 -11 -4
-14 -8z"/>
<path d="M3049 448 c-152 -244 -269 -437 -269 -443 0 -3 6 -5 13 -5 16 1 430
637 422 650 -17 27 -43 -6 -166 -202z"/>
<path d="M1534 595 c-14 -25 -24 -49 -21 -52 4 -3 16 11 28 31 12 21 25 34 29
29 4 -4 15 -32 26 -60 10 -29 22 -53 27 -53 5 0 7 6 4 13 -2 6 -14 40 -27 75
-12 34 -26 62 -31 62 -4 0 -20 -20 -35 -45z"/>
<path d="M4189 611 c13 -12 28 -21 35 -21 12 0 -5 14 -39 31 -16 8 -15 6 4
-10z"/>
<path d="M3742 453 c-23 -48 -39 -89 -36 -92 3 -3 9 1 14 9 17 26 72 162 67
166 -2 2 -22 -35 -45 -83z"/>
<path d="M3890 536 c0 -3 9 -10 20 -16 11 -6 20 -8 20 -6 0 3 -9 10 -20 16
-11 6 -20 8 -20 6z"/>
<path d="M3965 486 c17 -14 34 -26 39 -26 11 0 11 0 -34 29 l-35 23 30 -26z"/>
<path d="M3189 403 c-34 -79 -100 -276 -94 -281 3 -3 9 -1 14 4 9 10 123 299
123 311 0 4 -5 9 -11 11 -6 2 -20 -18 -32 -45z"/>
<path d="M1870 431 c0 -4 13 -39 28 -77 33 -79 98 -274 107 -322 7 -35 35 -45
35 -13 0 57 -136 421 -156 421 -8 0 -14 -4 -14 -9z"/>
<path d="M4100 360 c10 -19 40 -28 40 -12 0 13 -23 32 -37 32 -11 0 -11 -5 -3
-20z"/>
<path d="M2356 241 c-8 -12 76 -175 96 -187 12 -8 3 142 -12 180 -7 19 -9 19
-15 3 -4 -9 -5 -34 -3 -54 3 -24 1 -32 -4 -22 -5 8 -19 31 -32 53 -15 24 -26
34 -30 27z"/>
<path d="M1405 49 c-93 -9 -267 -38 -275 -46 -7 -7 153 2 293 17 94 10 138 10
215 0 53 -6 138 -13 187 -15 l90 -4 -55 14 c-68 18 -280 45 -335 44 -22 -1
-76 -5 -120 -10z"/>
<path d="M3560 42 c0 -8 18 -12 48 -12 26 0 92 -7 146 -15 91 -14 255 -21 245
-11 -24 25 -439 60 -439 38z"/>
<path d="M3230 10 c-20 -6 -14 -8 27 -9 28 -1 55 4 58 9 7 12 -48 12 -85 0z"/>
</g>
</svg>
